# xmcd
#
# Track frame offsets:
#	150
#	35548
#	50588
#	64585
#	80035
#	95728
#	106468
#	118765
#	137048
#	165520
#	182583
#	198625
#
# Disc length: 2896 seconds
#
# Revision: 0
# Processed by: cddbd v1.5.2PL0 Copyright (c) Steve Scherf et al.
# Submitted via: EasyCDDAExtractor 11.5.3.1
#
DISCID=ab0b4e0c
DTITLE=Diana Ross - Bilboard Hits U.S.A
DYEAR=1900
DGENRE=Soul
TTITLE0=Love Hangover
TTITLE1=Remenber Me
TTITLE2=Reach Out And Touch
TTITLE3=Theme From Mahogany
TTITLE4=Touch Me In The Morning
TTITLE5=Good Morning Heartache
TTITLE6=Last Time I Saw Him
TTITLE7=Reach Out I'll Be There
TTITLE8=Ain't No Mountain High Enough
TTITLE9=I'm Still Waiting
TTITLE10=All Night Lover
TTITLE11=After You
EXTD=
EXTT0=
EXTT1=
EXTT2=
EXTT3=
EXTT4=
EXTT5=
EXTT6=
EXTT7=
EXTT8=
EXTT9=
EXTT10=
EXTT11=
PLAYORDER=
